{
  "accessors": [
    {
      "bufferView": 2,
      "componentType": 5126,
      "count": 3746,
      "max": [
        7.400679588317871,
        -0.029315393418073654,
        12.881842613220215
      ],
      "min": [
        -7.400680065155029,
        -3.650057315826416,
        -5.517519950866699
      ],
      "type": "VEC3"
    },
    {
      "bufferView": 2,
      "byteOffset": 44952,
      "componentType": 5126,
      "count": 3746,
      "max": [
        0.9999927282333374,
        0.4445473849773407,
        1.0
      ],
      "min": [
        -0.9999927282333374,
        -1.0,
        -1.0
      ],
      "type": "VEC3"
    },
    {
      "bufferView": 1,
      "componentType": 5126,
      "count": 3746,
      "max": [
        0.751007080078125,
        0.9996851086616516
      ],
      "min": [
        0.5018569827079773,
        0.0001653259969316423
      ],
      "type": "VEC2"
    },
    {
      "bufferView": 0,
      "componentType": 5125,
      "count": 19584,
      "type": "SCALAR"
    },
    {
      "bufferView": 2,
      "byteOffset": 89904,
      "componentType": 5126,
      "count": 2016,
      "max": [
        7.336705207824707,
        0.0,
        12.842267990112305
      ],
      "min": [
        -7.336704730987549,
        -0.029315395280718803,
        -5.468607425689697
      ],
      "type": "VEC3"
    },
    {
      "bufferView": 2,
      "byteOffset": 114096,
      "componentType": 5126,
      "count": 2016,
      "max": [
        0.9267410635948181,
        1.0,
        0.911359965801239
      ],
      "min": [
        -0.9267410635948181,
        0.283462792634964,
        -0.956713855266571
      ],
      "type": "VEC3"
    },
    {
      "bufferView": 1,
      "byteOffset": 29968,
      "componentType": 5126,
      "count": 2016,
      "max": [
        0.4982382655143738,
        0.3995150625705719
      ],
      "min": [
        0.0001653259969316423,
        0.0001653259969316423
      ],
      "type": "VEC2"
    },
    {
      "bufferView": 0,
      "byteOffset": 78336,
      "componentType": 5125,
      "count": 11136,
      "type": "SCALAR"
    },
    {
      "bufferView": 2,
      "byteOffset": 138288,
      "componentType": 5126,
      "count": 2522,
      "max": [
        7.398149490356445,
        -0.023495540022850037,
        12.879789352416992
      ],
      "min": [
        -7.398149013519287,
        -3.7763726711273193,
        -5.51590633392334
      ],
      "type": "VEC3"
    },
    {
      "bufferView": 2,
      "byteOffset": 168552,
      "componentType": 5126,
      "count": 2522,
      "max": [
        0.9995230436325073,
        0.9868238568305969,
        0.999416708946228
      ],
      "min": [
        -0.9995230436325073,
        -0.9997690916061401,
        -0.9995849132537842
      ],
      "type": "VEC3"
    },
    {
      "bufferView": 1,
      "byteOffset": 46096,
      "componentType": 5126,
      "count": 2522,
      "max": [
        0.718070924282074,
        0.9998345971107483
      ],
      "min": [
        0.49856889247894287,
        0.0001653259969316423
      ],
      "type": "VEC2"
    },
    {
      "bufferView": 0,
      "byteOffset": 122880,
      "componentType": 5125,
      "count": 12672,
      "type": "SCALAR"
    },
    {
      "bufferView": 2,
      "byteOffset": 198816,
      "componentType": 5126,
      "count": 3105,
      "max": [
        7.291147232055664,
        -3.5158395767211914,
        12.807641983032227
      ],
      "min": [
        -7.291147232055664,
        -3.7763726711273193,
        -5.459218502044678
      ],
      "type": "VEC3"
    },
    {
      "bufferView": 2,
      "byteOffset": 236076,
      "componentType": 5126,
      "count": 3105,
      "max": [
        0.053102992475032806,
        -0.9946557879447937,
        0.032685816287994385
      ],
      "min": [
        -0.053102992475032806,
        -1.0,
        -0.10324692726135254
      ],
      "type": "VEC3"
    },
    {
      "bufferView": 1,
      "byteOffset": 66272,
      "componentType": 5126,
      "count": 3105,
      "max": [
        0.4970833957195282,
        0.7964145541191101
      ],
      "min": [
        0.0001653259969316423,
        0.39984574913978577
      ],
      "type": "VEC2"
    },
    {
      "bufferView": 0,
      "byteOffset": 173568,
      "componentType": 5125,
      "count": 18048,
      "type": "SCALAR"
    },
    {
      "bufferView": 2,
      "byteOffset": 273336,
      "componentType": 5126,
      "count": 1027,
      "max": [
        3.792543411254883,
        0.8846102952957153,
        0.9578655362129211
      ],
      "min": [
        -3.792543411254883,
        -0.8846103549003601,
        -0.8113549947738647
      ],
      "type": "VEC3"
    },
    {
      "bufferView": 2,
      "byteOffset": 285660,
      "componentType": 5126,
      "count": 1027,
      "max": [
        0.9999997615814209,
        1.0,
        0.9999998807907104
      ],
      "min": [
        -0.9999997615814209,
        0.00027466658502817154,
        -1.0
      ],
      "type": "VEC3"
    },
    {
      "bufferView": 1,
      "byteOffset": 91112,
      "componentType": 5126,
      "count": 1027,
      "max": [
        0.7312545776367188,
        0.99984210729599
      ],
      "min": [
        0.00015795185754541308,
        0.00015795185754541308
      ],
      "type": "VEC2"
    },
    {
      "bufferView": 0,
      "byteOffset": 245760,
      "componentType": 5125,
      "count": 4944,
      "type": "SCALAR"
    },
    {
      "bufferView": 2,
      "byteOffset": 297984,
      "componentType": 5126,
      "count": 8437,
      "max": [
        1.2440582513809204,
        0.9366238117218018,
        3.8359224796295166
      ],
      "min": [
        -1.2440582513809204,
        -21.268383026123047,
        -0.03414066880941391
      ],
      "type": "VEC3"
    },
    {
      "bufferView": 2,
      "byteOffset": 399228,
      "componentType": 5126,
      "count": 8437,
      "max": [
        0.9999445676803589,
        0.5389710068702698,
        1.0
      ],
      "min": [
        -0.9999445676803589,
        -0.9995788335800171,
        -1.0
      ],
      "type": "VEC3"
    },
    {
      "bufferView": 1,
      "byteOffset": 99328,
      "componentType": 5126,
      "count": 8437,
      "max": [
        0.973349928855896,
        1.0
      ],
      "min": [
        0.0,
        0.0
      ],
      "type": "VEC2"
    },
    {
      "bufferView": 0,
      "byteOffset": 265536,
      "componentType": 5125,
      "count": 47232,
      "type": "SCALAR"
    },
    {
      "bufferView": 2,
      "byteOffset": 500472,
      "componentType": 5126,
      "count": 3170,
      "max": [
        0.9758977293968201,
        4.924654006958008,
        0.031032977625727654
      ],
      "min": [
        -0.9758977293968201,
        -13.956116676330566,
        -0.20484955608844757
      ],
      "type": "VEC3"
    },
    {
      "bufferView": 2,
      "byteOffset": 538512,
      "componentType": 5126,
      "count": 3170,
      "max": [
        0.9999823570251465,
        0.9999997615814209,
        0.04648052901029587
      ],
      "min": [
        -0.9999823570251465,
        -0.9999010562896729,
        -1.0
      ],
      "type": "VEC3"
    },
    {
      "bufferView": 1,
      "byteOffset": 166824,
      "componentType": 5126,
      "count": 3170,
      "max": [
        0.8571963310241699,
        0.9824650287628174
      ],
      "min": [
        0.0,
        0.0
      ],
      "type": "VEC2"
    },
    {
      "bufferView": 0,
      "byteOffset": 454464,
      "componentType": 5125,
      "count": 17088,
      "type": "SCALAR"
    },
    {
      "bufferView": 2,
      "byteOffset": 576552,
      "componentType": 5126,
      "count": 11984,
      "max": [
        12.448850631713867,
        2.3929831981658936,
        214.35983276367188
      ],
      "min": [
        -12.448850631713867,
        -1.5807865858078003,
        -0.0701417624950409
      ],
      "type": "VEC3"
    },
    {
      "bufferView": 2,
      "byteOffset": 720360,
      "componentType": 5126,
      "count": 11984,
      "max": [
        1.0,
        1.0,
        1.0
      ],
      "min": [
        -1.0,
        -0.7549358606338501,
        -1.0
      ],
      "type": "VEC3"
    },
    {
      "bufferView": 1,
      "byteOffset": 192184,
      "componentType": 5126,
      "count": 11984,
      "max": [
        0.5382575392723083,
        0.9999999403953552
      ],
      "min": [
        0.0,
        0.0
      ],
      "type": "VEC2"
    },
    {
      "bufferView": 0,
      "byteOffset": 522816,
      "componentType": 5125,
      "count": 67032,
      "type": "SCALAR"
    },
    {
      "bufferView": 2,
      "byteOffset": 864168,
      "componentType": 5126,
      "count": 1360,
      "max": [
        1.2939707040786743,
        1.215475082397461,
        460.7539367675781
      ],
      "min": [
        -1.2939707040786743,
        -1.0000001192092896,
        -0.9791667461395264
      ],
      "type": "VEC3"
    },
    {
      "bufferView": 2,
      "byteOffset": 880488,
      "componentType": 5126,
      "count": 1360,
      "max": [
        0.9999997615814209,
        0.7893177270889282,
        0.8165290355682373
      ],
      "min": [
        -0.9999997615814209,
        0.0007935052854008973,
        -0.8165290355682373
      ],
      "type": "VEC3"
    },
    {
      "bufferView": 1,
      "byteOffset": 288056,
      "componentType": 5126,
      "count": 1360,
      "max": [
        0.9393768310546875,
        0.9999998807907104
      ],
      "min": [
        0.0,
        0.0
      ],
      "type": "VEC2"
    },
    {
      "bufferView": 0,
      "byteOffset": 790944,
      "componentType": 5125,
      "count": 4800,
      "type": "SCALAR"
    },
    {
      "bufferView": 2,
      "byteOffset": 896808,
      "componentType": 5126,
      "count": 3331,
      "max": [
        64.07133483886719,
        0.061110690236091614,
        6.131417274475098
      ],
      "min": [
        -1.7893363237380981,
        -39.27202606201172,
        4.182719707489014
      ],
      "type": "VEC3"
    },
    {
      "bufferView": 2,
      "byteOffset": 936780,
      "componentType": 5126,
      "count": 3331,
      "max": [
        0.9941517114639282,
        0.9979766607284546,
        0.9998089075088501
      ],
      "min": [
        -0.990705668926239,
        -0.9947105050086975,
        -0.9999781847000122
      ],
      "type": "VEC3"
    },
    {
      "bufferView": 1,
      "byteOffset": 298936,
      "componentType": 5126,
      "count": 3331,
      "max": [
        0.22159528732299805,
        1.0
      ],
      "min": [
        0.0,
        0.0
      ],
      "type": "VEC2"
    },
    {
      "bufferView": 0,
      "byteOffset": 810144,
      "componentType": 5125,
      "count": 15564,
      "type": "SCALAR"
    },
    {
      "bufferView": 2,
      "byteOffset": 976752,
      "componentType": 5126,
      "count": 6734,
      "max": [
        67.04537963867188,
        0.17206057906150818,
        3.2526893615722656
      ],
      "min": [
        -2.0525949001312256,
        -42.213871002197266,
        -2.4832489490509033
      ],
      "type": "VEC3"
    },
    {
      "bufferView": 2,
      "byteOffset": 1057560,
      "componentType": 5126,
      "count": 6734,
      "max": [
        0.9951409697532654,
        0.9997546672821045,
        1.0
      ],
      "min": [
        -0.9998537302017212,
        -0.9997830390930176,
        -1.0
      ],
      "type": "VEC3"
    },
    {
      "bufferView": 1,
      "byteOffset": 325584,
      "componentType": 5126,
      "count": 6734,
      "max": [
        0.4284479320049286,
        1.0
      ],
      "min": [
        0.0,
        0.0
      ],
      "type": "VEC2"
    },
    {
      "bufferView": 0,
      "byteOffset": 872400,
      "componentType": 5125,
      "count": 31572,
      "type": "SCALAR"
    },
    {
      "bufferView": 2,
      "byteOffset": 1138368,
      "componentType": 5126,
      "count": 1536,
      "max": [
        1.0,
        1.1829837109900154e-09,
        1.0
      ],
      "min": [
        -1.0,
        -0.009186887182295322,
        -1.0
      ],
      "type": "VEC3"
    },
    {
      "bufferView": 2,
      "byteOffset": 1156800,
      "componentType": 5126,
      "count": 1536,
      "max": [
        0.9987956285476685,
        1.0,
        0.9987955689430237
      ],
      "min": [
        -0.9987955689430237,
        0.0,
        -0.9987956285476685
      ],
      "type": "VEC3"
    },
    {
      "bufferView": 1,
      "byteOffset": 379456,
      "componentType": 5126,
      "count": 1536,
      "max": [
        0.3245459794998169,
        0.9999247789382935
      ],
      "min": [
        7.516716868849471e-05,
        7.516716868849471e-05
      ],
      "type": "VEC2"
    },
    {
      "bufferView": 0,
      "byteOffset": 998688,
      "componentType": 5125,
      "count": 2304,
      "type": "SCALAR"
    },
    {
      "bufferView": 2,
      "byteOffset": 1175232,
      "componentType": 5126,
      "count": 29394,
      "max": [
        7.378750324249268,
        3.5313827991485596,
        7.591342926025391
      ],
      "min": [
        -7.338027000427246,
        -7.943216800689697,
        -7.001106262207031
      ],
      "type": "VEC3"
    },
    {
      "bufferView": 2,
      "byteOffset": 1527960,
      "componentType": 5126,
      "count": 29394,
      "max": [
        1.0,
        1.0,
        1.0
      ],
      "min": [
        -1.0,
        -0.9999998807907104,
        -1.0
      ],
      "type": "VEC3"
    },
    {
      "bufferView": 1,
      "byteOffset": 391744,
      "componentType": 5126,
      "count": 29394,
      "max": [
        0.9975999593734741,
        0.9999999403953552
      ],
      "min": [
        0.0,
        0.0
      ],
      "type": "VEC2"
    },
    {
      "bufferView": 0,
      "byteOffset": 1007904,
      "componentType": 5125,
      "count": 145728,
      "type": "SCALAR"
    }
  ],
  "asset": {
    "extras": {
      "author": "Ya (https://sketchfab.com/Yarik16)",
      "license": "CC-BY-4.0 (http://creativecommons.org/licenses/by/4.0/)",
      "source": "https://sketchfab.com/3d-models/guitar-f8ccd75e8c2648ffbbc9e6208ed919c1",
      "title": "Guitar"
    },
    "generator": "Sketchfab-12.66.0",
    "version": "2.0"
  },
  "bufferViews": [
    {
      "buffer": 0,
      "byteLength": 1590816,
      "name": "floatBufferViews",
      "target": 34963
    },
    {
      "buffer": 0,
      "byteLength": 626896,
      "byteOffset": 1590816,
      "byteStride": 8,
      "name": "floatBufferViews",
      "target": 34962
    },
    {
      "buffer": 0,
      "byteLength": 1880688,
      "byteOffset": 2217712,
      "byteStride": 12,
      "name": "floatBufferViews",
      "target": 34962
    }
  ],
  "buffers": [
    {
      "byteLength": 4098400,
      "uri": "scene.bin"
    }
  ],
  "images": [
    {
      "uri": "textures/body2_baseColor.png"
    },
    {
      "uri": "textures/body2_metallicRoughness.png"
    },
    {
      "uri": "textures/body1_baseColor.png"
    },
    {
      "uri": "textures/body_facets_guitar_baseColor.png"
    },
    {
      "uri": "textures/body3_baseColor.png"
    },
    {
      "uri": "textures/bridge_baseColor.png"
    },
    {
      "uri": "textures/neck-head_baseColor.png"
    },
    {
      "uri": "textures/neck2_baseColor.png"
    },
    {
      "uri": "textures/neck2_metallicRoughness.png"
    },
    {
      "uri": "textures/bridge-pins-saddle-nut_baseColor.png"
    },
    {
      "uri": "textures/bridge-pins-saddle-nut_metallicRoughness.png"
    },
    {
      "uri": "textures/frets_baseColor.png"
    },
    {
      "uri": "textures/frets_metallicRoughness.png"
    },
    {
      "uri": "textures/string5-6_baseColor.png"
    },
    {
      "uri": "textures/string5-6_metallicRoughness.png"
    },
    {
      "uri": "textures/string1-2-3-4_baseColor.png"
    },
    {
      "uri": "textures/pattern_baseColor.png"
    },
    {
      "uri": "textures/pattern_metallicRoughness.png"
    },
    {
      "uri": "textures/tuning_baseColor.png"
    },
    {
      "uri": "textures/tuning_metallicRoughness.png"
    }
  ],
  "materials": [
    {
      "doubleSided": true,
      "name": "body2",
      "pbrMetallicRoughness": {
        "baseColorTexture": {
          "index": 0
        },
        "metallicFactor": 0.0,
        "metallicRoughnessTexture": {
          "index": 1
        }
      }
    },
    {
      "doubleSided": true,
      "name": "body1",
      "pbrMetallicRoughness": {
        "baseColorTexture": {
          "index": 2
        },
        "metallicFactor": 0.0,
        "metallicRoughnessTexture": {
          "index": 1
        }
      }
    },
    {
      "doubleSided": true,
      "name": "body_facets_guitar",
      "pbrMetallicRoughness": {
        "baseColorTexture": {
          "index": 3
        },
        "metallicFactor": 0.0,
        "metallicRoughnessTexture": {
          "index": 1
        }
      }
    },
    {
      "doubleSided": true,
      "name": "body3",
      "pbrMetallicRoughness": {
        "baseColorTexture": {
          "index": 4
        },
        "metallicFactor": 0.0,
        "metallicRoughnessTexture": {
          "index": 1
        }
      }
    },
    {
      "doubleSided": true,
      "name": "bridge",
      "pbrMetallicRoughness": {
        "baseColorTexture": {
          "index": 5
        },
        "metallicFactor": 0.0,
        "metallicRoughnessTexture": {
          "index": 1
        }
      }
    },
    {
      "doubleSided": true,
      "name": "neck-head",
      "pbrMetallicRoughness": {
        "baseColorTexture": {
          "index": 6
        },
        "metallicFactor": 0.0,
        "metallicRoughnessTexture": {
          "index": 1
        }
      }
    },
    {
      "doubleSided": true,
      "name": "neck2",
      "pbrMetallicRoughness": {
        "baseColorTexture": {
          "index": 7
        },
        "metallicFactor": 0.0,
        "metallicRoughnessTexture": {
          "index": 8
        }
      }
    },
    {
      "doubleSided": true,
      "name": "bridge-pins-saddle-nut",
      "pbrMetallicRoughness": {
        "baseColorTexture": {
          "index": 9
        },
        "metallicFactor": 0.0,
        "metallicRoughnessTexture": {
          "index": 10
        }
      }
    },
    {
      "doubleSided": true,
      "name": "frets",
      "pbrMetallicRoughness": {
        "baseColorTexture": {
          "index": 11
        },
        "metallicFactor": 0.768182,
        "metallicRoughnessTexture": {
          "index": 12
        }
      }
    },
    {
      "doubleSided": true,
      "name": "string5-6",
      "pbrMetallicRoughness": {
        "baseColorTexture": {
          "index": 13
        },
        "metallicFactor": 0.695455,
        "metallicRoughnessTexture": {
          "index": 14
        }
      }
    },
    {
      "doubleSided": true,
      "name": "string1-2-3-4",
      "pbrMetallicRoughness": {
        "baseColorTexture": {
          "index": 15
        },
        "metallicFactor": 0.695455,
        "metallicRoughnessTexture": {
          "index": 14
        }
      }
    },
    {
      "doubleSided": true,
      "name": "pattern",
      "pbrMetallicRoughness": {
        "baseColorTexture": {
          "index": 16
        },
        "metallicFactor": 0.0,
        "metallicRoughnessTexture": {
          "index": 17
        }
      }
    },
    {
      "doubleSided": true,
      "name": "tuning",
      "pbrMetallicRoughness": {
        "baseColorTexture": {
          "index": 18
        },
        "metallicFactor": 0.9,
        "metallicRoughnessTexture": {
          "index": 19
        }
      }
    }
  ],
  "meshes": [
    {
      "name": "Object_0",
      "primitives": [
        {
          "attributes": {
            "NORMAL": 1,
            "POSITION": 0,
            "TEXCOORD_0": 2
          },
          "indices": 3,
          "material": 0,
          "mode": 4
        }
      ]
    },
    {
      "name": "Object_1",
      "primitives": [
        {
          "attributes": {
            "NORMAL": 5,
            "POSITION": 4,
            "TEXCOORD_0": 6
          },
          "indices": 7,
          "material": 1,
          "mode": 4
        }
      ]
    },
    {
      "name": "Object_2",
      "primitives": [
        {
          "attributes": {
            "NORMAL": 9,
            "POSITION": 8,
            "TEXCOORD_0": 10
          },
          "indices": 11,
          "material": 2,
          "mode": 4
        }
      ]
    },
    {
      "name": "Object_3",
      "primitives": [
        {
          "attributes": {
            "NORMAL": 13,
            "POSITION": 12,
            "TEXCOORD_0": 14
          },
          "indices": 15,
          "material": 3,
          "mode": 4
        }
      ]
    },
    {
      "name": "Object_4",
      "primitives": [
        {
          "attributes": {
            "NORMAL": 17,
            "POSITION": 16,
            "TEXCOORD_0": 18
          },
          "indices": 19,
          "material": 4,
          "mode": 4
        }
      ]
    },
    {
      "name": "Object_5",
      "primitives": [
        {
          "attributes": {
            "NORMAL": 21,
            "POSITION": 20,
            "TEXCOORD_0": 22
          },
          "indices": 23,
          "material": 5,
          "mode": 4
        }
      ]
    },
    {
      "name": "Object_6",
      "primitives": [
        {
          "attributes": {
            "NORMAL": 25,
            "POSITION": 24,
            "TEXCOORD_0": 26
          },
          "indices": 27,
          "material": 6,
          "mode": 4
        }
      ]
    },
    {
      "name": "Object_7",
      "primitives": [
        {
          "attributes": {
            "NORMAL": 29,
            "POSITION": 28,
            "TEXCOORD_0": 30
          },
          "indices": 31,
          "material": 7,
          "mode": 4
        }
      ]
    },
    {
      "name": "Object_8",
      "primitives": [
        {
          "attributes": {
            "NORMAL": 33,
            "POSITION": 32,
            "TEXCOORD_0": 34
          },
          "indices": 35,
          "material": 8,
          "mode": 4
        }
      ]
    },
    {
      "name": "Object_9",
      "primitives": [
        {
          "attributes": {
            "NORMAL": 37,
            "POSITION": 36,
            "TEXCOORD_0": 38
          },
          "indices": 39,
          "material": 9,
          "mode": 4
        }
      ]
    },
    {
      "name": "Object_10",
      "primitives": [
        {
          "attributes": {
            "NORMAL": 41,
            "POSITION": 40,
            "TEXCOORD_0": 42
          },
          "indices": 43,
          "material": 10,
          "mode": 4
        }
      ]
    },
    {
      "name": "Object_11",
      "primitives": [
        {
          "attributes": {
            "NORMAL": 45,
            "POSITION": 44,
            "TEXCOORD_0": 46
          },
          "indices": 47,
          "material": 11,
          "mode": 4
        }
      ]
    },
    {
      "name": "Object_12",
      "primitives": [
        {
          "attributes": {
            "NORMAL": 49,
            "POSITION": 48,
            "TEXCOORD_0": 50
          },
          "indices": 51,
          "material": 12,
          "mode": 4
        }
      ]
    }
  ],
  "nodes": [
    {
      "children": [
        1
      ],
      "matrix": [
        1.0,
        0.0,
        0.0,
        0.0,
        0.0,
        2.220446049250313e-16,
        -1.0,
        0.0,
        0.0,
        1.0,
        2.220446049250313e-16,
        0.0,
        0.0,
        0.0,
        0.0,
        1.0
      ],
      "name": "Sketchfab_model"
    },
    {
      "children": [
        2
      ],
      "name": "root"
    },
    {
      "children": [
        3,
        8,
        10,
        13,
        15,
        17,
        19,
        21,
        23
      ],
      "matrix": [
        1.0,
        0.0,
        0.0,
        0.0,
        0.0,
        2.220446049250313e-16,
        1.0,
        0.0,
        0.0,
        -1.0,
        2.220446049250313e-16,
        0.0,
        0.0,
        0.0,
        0.0,
        1.0
      ],
      "name": "GLTF_SceneRootNode"
    },
    {
      "children": [
        4,
        5,
        6,
        7
      ],
      "matrix": [
        0.12929707765579224,
        0.0,
        0.0,
        0.0,
        0.0,
        0.12929707765579224,
        0.0,
        0.0,
        0.0,
        0.0,
        0.12929707765579224,
        0.0,
        0.0,
        0.0,
        0.8177604675292969,
        1.0
      ],
      "name": "body_2"
    },
    {
      "mesh": 0,
      "name": "Object_4"
    },
    {
      "mesh": 1,
      "name": "Object_5"
    },
    {
      "mesh": 2,
      "name": "Object_6"
    },
    {
      "mesh": 3,
      "name": "Object_7"
    },
    {
      "children": [
        9
      ],
      "matrix": [
        0.11133468151092529,
        0.0,
        0.0,
        0.0,
        0.0,
        0.02069060318171978,
        0.0,
        0.0,
        0.0,
        0.0,
        0.11133468151092529,
        0.0,
        0.0,
        0.017372991889715195,
        1.6061456203460693,
        1.0
      ],
      "name": "bridge_3"
    },
    {
      "mesh": 4,
      "name": "Object_9"
    },
    {
      "children": [
        11,
        12
      ],
      "matrix": [
        0.15137933194637299,
        0.0,
        0.0,
        0.0,
        0.0,
        0.0,
        0.1181732788681984,
        0.0,
        0.0,
        -0.1181732788681984,
        0.0,
        0.0,
        0.0,
        -0.00018294979236088693,
        0.0,
        1.0
      ],
      "name": "neck_4"
    },
    {
      "mesh": 5,
      "name": "Object_11"
    },
    {
      "mesh": 6,
      "name": "Object_12"
    },
    {
      "children": [
        14
      ],
      "matrix": [
        0.0154590904712677,
        0.0,
        0.0,
        0.0,
        0.0,
        0.015432950109243393,
        0.0,
        0.0,
        0.0,
        0.0,
        0.015432950109243393,
        0.0,
        0.0,
        0.022963298484683037,
        -1.6706172227859497,
        1.0
      ],
      "name": "bridge-pins-saddle-nut_5"
    },
    {
      "mesh": 7,
      "name": "Object_14"
    },
    {
      "children": [
        16
      ],
      "matrix": [
        0.11153838038444519,
        0.0,
        0.0,
        0.0,
        0.0,
        0.0023638263810425997,
        0.0,
        0.0,
        0.0,
        0.0,
        0.004330416675657034,
        0.0,
        0.0,
        0.026234086602926254,
        -1.4712415933609009,
        1.0
      ],
      "name": "frets_6"
    },
    {
      "mesh": 8,
      "name": "Object_16"
    },
    {
      "children": [
        18
      ],
      "matrix": [
        -3.9503363305294525e-09,
        0.023762473901830634,
        -0.04221890423394399,
        0.0,
        1.0353394316945076e-09,
        0.042218904233944164,
        0.023762473901830634,
        0.0,
        0.04844678565859777,
        1.0353394316945076e-09,
        -3.9503363305294525e-09,
        0.0,
        -0.14874771237373352,
        0.08084186911582947,
        1.5201313495635986,
        1.0
      ],
      "name": "5-6string_7"
    },
    {
      "mesh": 9,
      "name": "Object_18"
    },
    {
      "children": [
        20
      ],
      "matrix": [
        -3.9503363305294525e-09,
        0.023762473901830634,
        -0.04221890423394399,
        0.0,
        1.0353394316945076e-09,
        0.042218904233944164,
        0.023762473901830634,
        0.0,
        0.04844678565859777,
        1.0353394316945076e-09,
        -3.9503363305294525e-09,
        0.0,
        -0.03134909272193909,
        0.08084186911582947,
        1.5177632570266724,
        1.0
      ],
      "name": "1-2-3-4string_8"
    },
    {
      "mesh": 10,
      "name": "Object_20"
    },
    {
      "children": [
        22
      ],
      "matrix": [
        0.23161851867460773,
        0.0,
        -0.19145747048697653,
        0.0,
        0.0,
        0.30050474405288696,
        0.0,
        0.0,
        0.19145747048697653,
        0.0,
        0.23161851867460773,
        0.0,
        0.0,
        0.00016170262824743986,
        0.8198449015617371,
        1.0
      ],
      "name": "pattern_9"
    },
    {
      "mesh": 11,
      "name": "Object_22"
    },
    {
      "children": [
        24
      ],
      "matrix": [
        -0.038386235780101904,
        -0.0008939981452368876,
        0.00020794494775497595,
        0.0,
        0.0004903415838526241,
        -0.01980519132278954,
        0.005369514162159612,
        0.0,
        -3.322348803417346e-05,
        0.010046629887555324,
        0.03705953870694297,
        0.0,
        -2.6797293685376644e-05,
        -0.17641742527484894,
        -2.073852062225342,
        1.0
      ],
      "name": "tuning.016_10"
    },
    {
      "mesh": 12,
      "name": "Object_24"
    }
  ],
  "samplers": [
    {
      "magFilter": 9729,
      "minFilter": 9987,
      "wrapS": 10497,
      "wrapT": 10497
    }
  ],
  "scene": 0,
  "scenes": [
    {
      "name": "Sketchfab_Scene",
      "nodes": [
        0
      ]
    }
  ],
  "textures": [
    {
      "sampler": 0,
      "source": 0
    },
    {
      "sampler": 0,
      "source": 1
    },
    {
      "sampler": 0,
      "source": 2
    },
    {
      "sampler": 0,
      "source": 3
    },
    {
      "sampler": 0,
      "source": 4
    },
    {
      "sampler": 0,
      "source": 5
    },
    {
      "sampler": 0,
      "source": 6
    },
    {
      "sampler": 0,
      "source": 7
    },
    {
      "sampler": 0,
      "source": 8
    },
    {
      "sampler": 0,
      "source": 9
    },
    {
      "sampler": 0,
      "source": 10
    },
    {
      "sampler": 0,
      "source": 11
    },
    {
      "sampler": 0,
      "source": 12
    },
    {
      "sampler": 0,
      "source": 13
    },
    {
      "sampler": 0,
      "source": 14
    },
    {
      "sampler": 0,
      "source": 15
    },
    {
      "sampler": 0,
      "source": 16
    },
    {
      "sampler": 0,
      "source": 17
    },
    {
      "sampler": 0,
      "source": 18
    },
    {
      "sampler": 0,
      "source": 19
    }
  ]
}
